# xmcd
#
# Track frame offsets:
#	150
#	16571
#	34661
#	49406
#	70922
#	90080
#	106710
#	122437
#	137815
#	154992
#	174330
#	190692
#	207230
#
# Disc length: 3033 seconds
#
# Revision: 1
# Processed by: cddbd v1.5.2PL0 Copyright (c) Steve Scherf et al.
# Submitted via: audiograbber 1.83.01
#
DISCID=9b0bd70d
DTITLE=Whiskey Falls - Whiskey Falls
DYEAR=2007
DGENRE=Country
TTITLE0=Falling Into You
TTITLE1=Last Train Running
TTITLE2=The Night Aint' Over Yet
TTITLE3=Highway 59
TTITLE4=The Champ
TTITLE5=Days Of Birmingham
TTITLE6=Better Days Will Come At Last
TTITLE7=Working Man
TTITLE8=So Much Better
TTITLE9=Keep The Light on
TTITLE10=Let The Whiskey Fall
TTITLE11=Load Up the Bases (The Basebal
TTITLE12=I Can't Stop Loving You
EXTD=
EXTT0=
EXTT1=
EXTT2=
EXTT3=
EXTT4=
EXTT5=
EXTT6=
EXTT7=
EXTT8=
EXTT9=
EXTT10=
EXTT11=
EXTT12=
PLAYORDER=
